<svg width="142" height="15" viewBox="0 0 142 15" fill="none" xmlns="http://www.w3.org/2000/svg">
<path d="M27.3301 11.1862L24.0343 6.85698V11.1862H21.6463V1.38257H24.0343V5.68389L27.3022 1.38257H30.1092L26.3107 6.18664L30.2489 11.1862H27.3301Z" fill="black"/>
<path d="M38.7296 7.16421C38.7296 7.38766 38.7156 7.62041 38.6877 7.86248H33.2831C33.3203 8.34661 33.4739 8.71902 33.7439 8.97971C34.0232 9.23108 34.3631 9.35677 34.7634 9.35677C35.3593 9.35677 35.7736 9.10539 36.0063 8.60264H38.548C38.4177 9.1147 38.1803 9.57556 37.8358 9.98521C37.5006 10.3949 37.077 10.7161 36.5649 10.9488C36.0529 11.1816 35.4803 11.298 34.8472 11.298C34.0838 11.298 33.4041 11.135 32.8083 10.8092C32.2124 10.4833 31.7469 10.0178 31.4117 9.41263C31.0766 8.80747 30.909 8.09989 30.909 7.2899C30.909 6.47991 31.0719 5.77234 31.3978 5.16717C31.7329 4.56201 32.1984 4.0965 32.7943 3.77064C33.3902 3.44478 34.0745 3.28185 34.8472 3.28185C35.6013 3.28185 36.2717 3.44013 36.8582 3.75667C37.4448 4.07322 37.901 4.52477 38.2268 5.11131C38.562 5.69785 38.7296 6.38216 38.7296 7.16421ZM36.2856 6.53577C36.2856 6.12612 36.146 5.80027 35.8667 5.5582C35.5874 5.31614 35.2382 5.1951 34.8193 5.1951C34.4189 5.1951 34.0791 5.31148 33.7998 5.54424C33.5298 5.77699 33.3622 6.1075 33.297 6.53577H36.2856Z" fill="black"/>
<path d="M44.7376 3.30978C45.65 3.30978 46.3762 3.60771 46.9162 4.20356C47.4655 4.79011 47.7401 5.6001 47.7401 6.63353V11.1862H45.366V6.95473C45.366 6.43336 45.231 6.02837 44.961 5.73975C44.691 5.45113 44.3279 5.30682 43.8717 5.30682C43.4155 5.30682 43.0524 5.45113 42.7825 5.73975C42.5125 6.02837 42.3775 6.43336 42.3775 6.95473V11.1862H39.9894V3.39358H42.3775V4.42701C42.6195 4.08253 42.9454 3.81253 43.355 3.61702C43.7647 3.4122 44.2255 3.30978 44.7376 3.30978Z" fill="black"/>
<path d="M51.6341 9.21712H55.0137V11.1862H48.9667V9.28694L52.2067 5.36269H48.9946V3.39358H54.9439V5.29286L51.6341 9.21712Z" fill="black"/>
<path d="M57.5288 2.58359C57.1098 2.58359 56.7653 2.46255 56.4953 2.22049C56.2346 1.96911 56.1043 1.66187 56.1043 1.29878C56.1043 0.926367 56.2346 0.61913 56.4953 0.377064C56.7653 0.125688 57.1098 0 57.5288 0C57.9384 0 58.2736 0.125688 58.5343 0.377064C58.8042 0.61913 58.9392 0.926367 58.9392 1.29878C58.9392 1.66187 58.8042 1.96911 58.5343 2.22049C58.2736 2.46255 57.9384 2.58359 57.5288 2.58359ZM58.7158 3.39358V11.1862H56.3277V3.39358H58.7158Z" fill="black"/>
<path d="M67.7922 7.16421C67.7922 7.38766 67.7782 7.62041 67.7503 7.86248H62.3457C62.3829 8.34661 62.5366 8.71902 62.8066 8.97971C63.0859 9.23108 63.4257 9.35677 63.826 9.35677C64.4219 9.35677 64.8362 9.10539 65.0689 8.60264H67.6106C67.4803 9.1147 67.2429 9.57556 66.8984 9.98521C66.5632 10.3949 66.1396 10.7161 65.6276 10.9488C65.1155 11.1816 64.5429 11.298 63.9098 11.298C63.1464 11.298 62.4667 11.135 61.8709 10.8092C61.275 10.4833 60.8095 10.0178 60.4743 9.41263C60.1392 8.80747 59.9716 8.09989 59.9716 7.2899C59.9716 6.47991 60.1345 5.77234 60.4604 5.16717C60.7955 4.56201 61.2611 4.0965 61.8569 3.77064C62.4528 3.44478 63.1371 3.28185 63.9098 3.28185C64.6639 3.28185 65.3343 3.44013 65.9208 3.75667C66.5074 4.07322 66.9636 4.52477 67.2894 5.11131C67.6246 5.69785 67.7922 6.38216 67.7922 7.16421ZM65.3482 6.53577C65.3482 6.12612 65.2086 5.80027 64.9293 5.5582C64.65 5.31614 64.3008 5.1951 63.8819 5.1951C63.4815 5.1951 63.1417 5.31148 62.8624 5.54424C62.5924 5.77699 62.4248 6.1075 62.3597 6.53577H65.3482Z" fill="black"/>
<path d="M74.3995 3.29582V5.27889H77.5976V7.12232H74.3995V9.27298H78.0165V11.1862H72.0115V1.38257H78.0165V3.29582H74.3995Z" fill="black"/>
<path d="M89.5102 3.30978C90.4785 3.30978 91.2466 3.60305 91.8145 4.1896C92.3917 4.77614 92.6804 5.59079 92.6804 6.63353V11.1862H90.3062V6.95473C90.3062 6.45198 90.1713 6.06561 89.9013 5.79561C89.6406 5.51631 89.2775 5.37665 88.812 5.37665C88.3464 5.37665 87.9787 5.51631 87.7087 5.79561C87.448 6.06561 87.3177 6.45198 87.3177 6.95473V11.1862H84.9436V6.95473C84.9436 6.45198 84.8086 6.06561 84.5386 5.79561C84.2779 5.51631 83.9148 5.37665 83.4493 5.37665C82.9838 5.37665 82.616 5.51631 82.346 5.79561C82.0853 6.06561 81.955 6.45198 81.955 6.95473V11.1862H79.5669V3.39358H81.955V4.37115C82.197 4.04529 82.5136 3.78926 82.9046 3.60305C83.2957 3.40754 83.7379 3.30978 84.2313 3.30978C84.8179 3.30978 85.3392 3.43547 85.7954 3.68685C86.261 3.93822 86.6241 4.29667 86.8847 4.76218C87.1547 4.33391 87.5225 3.98477 87.988 3.71478C88.4535 3.44478 88.9609 3.30978 89.5102 3.30978Z" fill="black"/>
<path d="M96.7386 4.49684C96.9713 4.13374 97.2926 3.84047 97.7022 3.61702C98.1119 3.39357 98.5913 3.28185 99.1406 3.28185C99.783 3.28185 100.365 3.44478 100.886 3.77064C101.408 4.0965 101.817 4.56201 102.115 5.16717C102.422 5.77234 102.576 6.47526 102.576 7.27594C102.576 8.07662 102.422 8.78419 102.115 9.39867C101.817 10.0038 101.408 10.474 100.886 10.8092C100.365 11.135 99.783 11.298 99.1406 11.298C98.6006 11.298 98.1212 11.1862 97.7022 10.9628C97.2926 10.7393 96.9713 10.4507 96.7386 10.0969V14.901H94.3505V3.39358H96.7386V4.49684ZM100.146 7.27594C100.146 6.68008 99.9786 6.21457 99.6434 5.8794C99.3175 5.53493 98.9125 5.36269 98.4284 5.36269C97.9536 5.36269 97.5486 5.53493 97.2134 5.8794C96.8876 6.22388 96.7246 6.69405 96.7246 7.2899C96.7246 7.88576 96.8876 8.35592 97.2134 8.7004C97.5486 9.04488 97.9536 9.21712 98.4284 9.21712C98.9032 9.21712 99.3082 9.04488 99.6434 8.7004C99.9786 8.34661 100.146 7.87179 100.146 7.27594Z" fill="black"/>
<path d="M106.217 4.69235C106.496 4.26408 106.845 3.92891 107.264 3.68685C107.683 3.43547 108.149 3.30978 108.661 3.30978V5.83751H108.005C107.409 5.83751 106.962 5.96785 106.664 6.22854C106.366 6.47991 106.217 6.9268 106.217 7.56921V11.1862H103.829V3.39358H106.217V4.69235Z" fill="black"/>
<path d="M117.148 7.16421C117.148 7.38766 117.134 7.62041 117.106 7.86248H111.702C111.739 8.34661 111.893 8.71902 112.163 8.97971C112.442 9.23108 112.782 9.35677 113.182 9.35677C113.778 9.35677 114.192 9.10539 114.425 8.60264H116.967C116.836 9.1147 116.599 9.57556 116.254 9.98521C115.919 10.3949 115.496 10.7161 114.984 10.9488C114.471 11.1816 113.899 11.298 113.266 11.298C112.502 11.298 111.823 11.135 111.227 10.8092C110.631 10.4833 110.165 10.0178 109.83 9.41263C109.495 8.80747 109.328 8.09989 109.328 7.2899C109.328 6.47991 109.49 5.77234 109.816 5.16717C110.152 4.56201 110.617 4.0965 111.213 3.77064C111.809 3.44478 112.493 3.28185 113.266 3.28185C114.02 3.28185 114.69 3.44013 115.277 3.75667C115.863 4.07322 116.32 4.52477 116.645 5.11131C116.981 5.69785 117.148 6.38216 117.148 7.16421ZM114.704 6.53577C114.704 6.12612 114.565 5.80027 114.285 5.5582C114.006 5.31614 113.657 5.1951 113.238 5.1951C112.838 5.1951 112.498 5.31148 112.218 5.54424C111.948 5.77699 111.781 6.1075 111.716 6.53577H114.704Z" fill="black"/>
<path d="M121.578 11.298C120.898 11.298 120.293 11.1816 119.763 10.9488C119.232 10.7161 118.813 10.3995 118.506 9.99918C118.199 9.58953 118.026 9.13332 117.989 8.63057H120.349C120.377 8.90057 120.503 9.11936 120.726 9.28694C120.95 9.45453 121.224 9.53832 121.55 9.53832C121.848 9.53832 122.076 9.48246 122.234 9.37074C122.402 9.2497 122.486 9.09608 122.486 8.90988C122.486 8.68643 122.369 8.52351 122.137 8.42109C121.904 8.30937 121.527 8.18834 121.006 8.05799C120.447 7.92765 119.981 7.79265 119.609 7.653C119.237 7.50404 118.915 7.27594 118.645 6.9687C118.375 6.65215 118.24 6.22854 118.24 5.69785C118.24 5.25096 118.361 4.84597 118.603 4.48287C118.855 4.11046 119.218 3.81719 119.693 3.60305C120.177 3.38892 120.75 3.28185 121.411 3.28185C122.388 3.28185 123.156 3.52392 123.715 4.00805C124.283 4.49218 124.609 5.13459 124.692 5.93526H122.486C122.449 5.66527 122.328 5.45113 122.123 5.29286C121.927 5.13459 121.667 5.05545 121.341 5.05545C121.061 5.05545 120.847 5.11131 120.698 5.22303C120.549 5.32545 120.475 5.46975 120.475 5.65596C120.475 5.8794 120.591 6.04699 120.824 6.15871C121.066 6.27043 121.438 6.38216 121.941 6.49388C122.518 6.64284 122.989 6.7918 123.352 6.94077C123.715 7.08042 124.031 7.31318 124.301 7.63903C124.581 7.95558 124.725 8.38385 124.734 8.92384C124.734 9.38005 124.604 9.7897 124.343 10.1528C124.092 10.5066 123.724 10.7859 123.24 10.9907C122.765 11.1955 122.211 11.298 121.578 11.298Z" fill="black"/>
<path d="M125.72 7.27594C125.72 6.47526 125.869 5.77234 126.167 5.16717C126.475 4.56201 126.889 4.0965 127.41 3.77064C127.932 3.44478 128.514 3.28185 129.156 3.28185C129.705 3.28185 130.185 3.39357 130.594 3.61702C131.013 3.84047 131.335 4.13374 131.558 4.49684V3.39358H133.946V11.1862H131.558V10.083C131.325 10.4461 130.999 10.7393 130.58 10.9628C130.171 11.1862 129.691 11.298 129.142 11.298C128.509 11.298 127.932 11.135 127.41 10.8092C126.889 10.474 126.475 10.0038 126.167 9.39867C125.869 8.78419 125.72 8.07662 125.72 7.27594ZM131.558 7.2899C131.558 6.69405 131.39 6.22388 131.055 5.8794C130.729 5.53493 130.329 5.36269 129.854 5.36269C129.379 5.36269 128.974 5.53493 128.639 5.8794C128.313 6.21457 128.15 6.68008 128.15 7.27594C128.15 7.87179 128.313 8.34661 128.639 8.7004C128.974 9.04488 129.379 9.21712 129.854 9.21712C130.329 9.21712 130.729 9.04488 131.055 8.7004C131.39 8.35592 131.558 7.88576 131.558 7.2899Z" fill="black"/>
<path d="M138.844 11.298C138.164 11.298 137.559 11.1816 137.028 10.9488C136.498 10.7161 136.079 10.3995 135.771 9.99918C135.464 9.58953 135.292 9.13332 135.255 8.63057H137.615C137.643 8.90057 137.769 9.11936 137.992 9.28694C138.215 9.45453 138.49 9.53832 138.816 9.53832C139.114 9.53832 139.342 9.48246 139.5 9.37074C139.668 9.2497 139.752 9.09608 139.752 8.90988C139.752 8.68643 139.635 8.52351 139.402 8.42109C139.17 8.30937 138.793 8.18834 138.271 8.05799C137.713 7.92765 137.247 7.79265 136.875 7.653C136.502 7.50404 136.181 7.27594 135.911 6.9687C135.641 6.65215 135.506 6.22854 135.506 5.69785C135.506 5.25096 135.627 4.84597 135.869 4.48287C136.121 4.11046 136.484 3.81719 136.959 3.60305C137.443 3.38892 138.015 3.28185 138.676 3.28185C139.654 3.28185 140.422 3.52392 140.981 4.00805C141.548 4.49218 141.874 5.13459 141.958 5.93526H139.752C139.714 5.66527 139.593 5.45113 139.388 5.29286C139.193 5.13459 138.932 5.05545 138.606 5.05545C138.327 5.05545 138.113 5.11131 137.964 5.22303C137.815 5.32545 137.741 5.46975 137.741 5.65596C137.741 5.8794 137.857 6.04699 138.09 6.15871C138.332 6.27043 138.704 6.38216 139.207 6.49388C139.784 6.64284 140.254 6.7918 140.617 6.94077C140.981 7.08042 141.297 7.31318 141.567 7.63903C141.846 7.95558 141.991 8.38385 142 8.92384C142 9.38005 141.87 9.7897 141.609 10.1528C141.358 10.5066 140.99 10.7859 140.506 10.9907C140.031 11.1955 139.477 11.298 138.844 11.298Z" fill="black"/>
<circle cx="5.58613" cy="6.98268" r="5.58613" fill="#4200FF" fill-opacity="0.5"/>
</svg>
