<svg width="34" height="34" viewBox="0 0 34 34" fill="none" xmlns="http://www.w3.org/2000/svg">
<path d="M9.24371 29.75C8.65343 29.75 8.1517 29.5434 7.7385 29.1302C7.32531 28.717 7.11871 28.2153 7.11871 27.625V7.4375H5.66663V5.3125H12.325V4.25H21.675V5.3125H28.3333V7.4375H26.8812V27.625C26.8812 28.1917 26.6687 28.6875 26.2437 29.1125C25.8187 29.5375 25.3229 29.75 24.7562 29.75H9.24371ZM24.7562 7.4375H9.24371V27.625H24.7562V7.4375ZM12.9979 24.5792H15.1229V10.4479H12.9979V24.5792ZM18.877 24.5792H21.002V10.4479H18.877V24.5792ZM9.24371 7.4375V27.625V7.4375Z" fill="black"/>
</svg>
